<svg width="19" height="23" viewBox="0 0 19 23" fill="none" xmlns="http://www.w3.org/2000/svg">
<path d="M9.5 5.33545C8.68415 5.33545 7.88663 5.57738 7.20827 6.03064C6.52992 6.4839 6.00121 7.12814 5.689 7.88188C5.37679 8.63563 5.2951 9.46503 5.45426 10.2652C5.61343 11.0654 6.00629 11.8004 6.58318 12.3773C7.16008 12.9542 7.89508 13.347 8.69525 13.5062C9.49542 13.6654 10.3248 13.5837 11.0786 13.2715C11.8323 12.9592 12.4766 12.4305 12.9298 11.7522C13.3831 11.0738 13.625 10.2763 13.625 9.46045C13.6238 8.36681 13.1888 7.31832 12.4154 6.545C11.6421 5.77169 10.5936 5.33669 9.5 5.33545ZM9.5 11.3355C9.12916 11.3355 8.76665 11.2255 8.45831 11.0195C8.14996 10.8134 7.90964 10.5206 7.76773 10.178C7.62581 9.83537 7.58868 9.45837 7.66103 9.09466C7.73337 8.73094 7.91195 8.39685 8.17417 8.13462C8.4364 7.8724 8.77049 7.69382 9.1342 7.62148C9.49792 7.54913 9.87492 7.58626 10.2175 7.72818C10.5601 7.87009 10.853 8.11041 11.059 8.41876C11.265 8.7271 11.375 9.08961 11.375 9.46045C11.375 9.95773 11.1775 10.4346 10.8258 10.7863C10.4742 11.1379 9.99728 11.3355 9.5 11.3355ZM9.5 0.835449C7.21327 0.837931 5.02091 1.74743 3.40394 3.36439C1.78698 4.98136 0.877482 7.17372 0.875 9.46045C0.875 16.713 8.52875 22.1542 8.855 22.382C9.04407 22.5143 9.26924 22.5853 9.5 22.5853C9.73076 22.5853 9.95594 22.5143 10.145 22.382C11.5946 21.3137 12.9209 20.0874 14.0994 18.7258C16.7328 15.7014 18.125 12.4951 18.125 9.46045C18.1225 7.17372 17.213 4.98136 15.5961 3.36439C13.9791 1.74743 11.7867 0.837931 9.5 0.835449ZM12.4344 17.2145C11.5405 18.2413 10.5586 19.188 9.5 20.0439C8.44136 19.188 7.4595 18.2413 6.56562 17.2145C5 15.4014 3.125 12.5833 3.125 9.46045C3.125 7.76969 3.79665 6.14819 4.99219 4.95264C6.18774 3.7571 7.80925 3.08545 9.5 3.08545C11.1908 3.08545 12.8123 3.7571 14.0078 4.95264C15.2034 6.14819 15.875 7.76969 15.875 9.46045C15.875 12.5833 14 15.4014 12.4344 17.2145Z" fill="#3A3A40"/>
</svg>
