<svg width="28" height="32" fill="none" xmlns="http://www.w3.org/2000/svg"><path fill-rule="evenodd" clip-rule="evenodd" d="M14 5.312a5.513 5.513 0 1 1 0 11.025 5.513 5.513 0 0 1 0-11.025Zm.5 15.634v10.345l10.204-3.967v-6.47l-7.979 3.103a.499.499 0 0 1-.61-.215L14.5 20.946Zm-1 10.345V20.946l-1.614 2.796a.499.499 0 0 1-.632.207l-7.958-3.095v6.47L13.5 31.29Zm11.486-15.945-10.263 3.99 2.041 3.537 10.264-3.991-2.042-3.536Zm-11.708 3.99-10.264-3.99-2.041 3.536 10.263 3.99 2.042-3.535Zm.722-2a6.515 6.515 0 0 1-6.044-4.081l-3.785 1.471 9.83 3.822 9.828-3.822-3.785-1.471A6.515 6.515 0 0 1 14 17.337Zm10.064-6.88a.5.5 0 1 1 0 1h-2.341a.5.5 0 1 1 0-1h2.341ZM13.5.628a.5.5 0 0 1 1 0V2.97a.5.5 0 0 1-1 0V.628ZM8.453 2.177a.498.498 0 0 1 .863-.496l1.171 2.028a.498.498 0 0 1-.863.496L8.453 2.177ZM4.854 6.044a.499.499 0 0 1 .5-.863l2.028 1.17a.499.499 0 0 1-.5.864l-2.028-1.17Zm-1.182 5.149a.5.5 0 0 1 0-1h2.342a.5.5 0 1 1 0 1H3.672Zm14.977-9.38a.498.498 0 0 1 .863.495l-1.17 2.028a.498.498 0 1 1-.864-.496l1.17-2.028Zm3.865 3.596a.499.499 0 0 1 .5.863l-2.028 1.17a.499.499 0 0 1-.5-.862l2.028-1.171ZM16.087 8.31l-3.265 3.265-1.114-1.402a.798.798 0 1 0-1.25.992l1.64 2.064a.8.8 0 0 0 1.222.108l3.897-3.897a.8.8 0 0 0-1.13-1.13Z" fill="#F94A4A"/></svg>