<svg width="24" height="25" viewBox="0 0 24 25" fill="none" xmlns="http://www.w3.org/2000/svg">
<path d="M12 0.710449C5.58415 0.710449 0.38298 6.08309 0.38298 12.7104C0.38298 18.338 4.13388 23.0602 9.19379 24.3572V16.3776H6.79836V12.7104H9.19379V11.1303C9.19379 7.04597 10.9833 5.15285 14.8652 5.15285C15.6013 5.15285 16.8713 5.30213 17.3908 5.45093V8.77493C17.1166 8.74517 16.6403 8.73029 16.0488 8.73029C14.144 8.73029 13.408 9.47573 13.408 11.4135V12.7104H17.2026L16.5506 16.3776H13.408V24.6226C19.1603 23.905 23.6175 18.8458 23.6175 12.7104C23.617 6.08309 18.4159 0.710449 12 0.710449Z" fill="#6E7C91"/>
</svg>
