<svg width="32" height="33" fill="none" xmlns="http://www.w3.org/2000/svg"><path fill-rule="evenodd" clip-rule="evenodd" d="M16.014 1.693a1.001 1.001 0 0 0-.99 1.02v2.003a1.002 1.002 0 0 0 2.002 0V2.713a.999.999 0 0 0-1.012-1.02ZM6.1 5.805a1.002 1.002 0 0 0-.695 1.72l1.413 1.42a1.005 1.005 0 1 0 1.418-1.42l-1.418-1.41a1.002 1.002 0 0 0-.718-.31Zm19.82.007a1.002 1.002 0 0 0-.685.303l-1.42 1.413a1.004 1.004 0 1 0 1.42 1.418l1.41-1.418a1 1 0 0 0-.726-1.716Zm-9.895 1.909a9.029 9.029 0 0 0-9.014 9.014c0 3.099 1.614 5.797 4.006 7.415v2.6c0 .552.45 1.002 1.002 1.002h8.012a1.002 1.002 0 0 0 1.002-1.002v-2.6a8.958 8.958 0 0 0 4.006-7.415 9.029 9.029 0 0 0-9.014-9.014Zm-.004 4.006a1.002 1.002 0 1 1 0 2.003 2.99 2.99 0 0 0-3 3.009 1.001 1.001 0 1 1-2.004 0 5.023 5.023 0 0 1 5.004-5.011ZM2.003 15.73a1.002 1.002 0 1 0 0 2.003h2.004a1.002 1.002 0 1 0 0-2.003H2.003Zm26.04 0a1.002 1.002 0 1 0 0 2.003h2.004a1.002 1.002 0 0 0 0-2.003h-2.004ZM7.521 24.218h-.019c-.259.01-.504.12-.684.306l-1.413 1.417a1.003 1.003 0 1 0 1.413 1.414l1.418-1.414a1.001 1.001 0 0 0-.718-1.723h.003Zm16.996 0a1.001 1.001 0 0 0-.703 1.723l1.421 1.414a1.002 1.002 0 1 0 1.41-1.414l-1.41-1.417a1.001 1.001 0 0 0-.718-.302v-.004Zm-10.59 5.544s.002 0 0 0a1.005 1.005 0 0 0-.625 1.746 1.001 1.001 0 0 0 .724.258h3.998a1.002 1.002 0 0 0 0-2.004h-3.998a1.007 1.007 0 0 0-.099 0Z" fill="#E232D2"/></svg>