<svg width="24" height="25" viewBox="0 0 24 25" fill="none" xmlns="http://www.w3.org/2000/svg">
<path d="M21.625 0.897949H2.375C1.79484 0.897949 1.23844 1.12842 0.828204 1.53865C0.417968 1.94889 0.1875 2.50529 0.1875 3.08545V22.3354C0.1875 22.9156 0.417968 23.472 0.828204 23.8822C1.23844 24.2925 1.79484 24.5229 2.375 24.5229H21.625C22.2052 24.5229 22.7616 24.2925 23.1718 23.8822C23.582 23.472 23.8125 22.9156 23.8125 22.3354V3.08545C23.8125 2.50529 23.582 1.94889 23.1718 1.53865C22.7616 1.12842 22.2052 0.897949 21.625 0.897949ZM21.1875 21.8979H2.8125V3.52295H21.1875V21.8979ZM10.25 17.9604V11.8354C10.2503 11.5627 10.3355 11.2968 10.4938 11.0747C10.6522 10.8526 10.8758 10.6854 11.1336 10.5962C11.3914 10.5071 11.6705 10.5005 11.9322 10.5773C12.1939 10.6542 12.4252 10.8106 12.5939 11.025C13.2606 10.6756 14.0061 10.504 14.7584 10.527C15.5107 10.5499 16.2444 10.7666 16.8885 11.156C17.5326 11.5454 18.0654 12.0944 18.4353 12.7499C18.8051 13.4054 18.9997 14.1453 19 14.8979V17.9604C19 18.3085 18.8617 18.6424 18.6156 18.8885C18.3694 19.1347 18.0356 19.2729 17.6875 19.2729C17.3394 19.2729 17.0056 19.1347 16.7594 18.8885C16.5133 18.6424 16.375 18.3085 16.375 17.9604V14.8979C16.375 14.4338 16.1906 13.9887 15.8624 13.6605C15.5342 13.3323 15.0891 13.1479 14.625 13.1479C14.1609 13.1479 13.7158 13.3323 13.3876 13.6605C13.0594 13.9887 12.875 14.4338 12.875 14.8979V17.9604C12.875 18.3085 12.7367 18.6424 12.4906 18.8885C12.2444 19.1347 11.9106 19.2729 11.5625 19.2729C11.2144 19.2729 10.8806 19.1347 10.6344 18.8885C10.3883 18.6424 10.25 18.3085 10.25 17.9604ZM8.5 11.8354V17.9604C8.5 18.3085 8.36172 18.6424 8.11558 18.8885C7.86944 19.1347 7.5356 19.2729 7.1875 19.2729C6.8394 19.2729 6.50556 19.1347 6.25942 18.8885C6.01328 18.6424 5.875 18.3085 5.875 17.9604V11.8354C5.875 11.4874 6.01328 11.1535 6.25942 10.9074C6.50556 10.6612 6.8394 10.5229 7.1875 10.5229C7.5356 10.5229 7.86944 10.6612 8.11558 10.9074C8.36172 11.1535 8.5 11.4874 8.5 11.8354ZM5.4375 7.46045C5.4375 7.11433 5.54014 6.77599 5.73243 6.4882C5.92472 6.20042 6.19803 5.97611 6.5178 5.84366C6.83757 5.71121 7.18944 5.67655 7.52891 5.74407C7.86837 5.8116 8.18019 5.97827 8.42494 6.22301C8.66968 6.46775 8.83635 6.77957 8.90387 7.11904C8.9714 7.45851 8.93674 7.81037 8.80429 8.13015C8.67184 8.44992 8.44753 8.72323 8.15975 8.91552C7.87196 9.10781 7.53362 9.21045 7.1875 9.21045C6.72337 9.21045 6.27825 9.02607 5.95006 8.69789C5.62187 8.3697 5.4375 7.92458 5.4375 7.46045Z" fill="#6E7C91"/>
</svg>
