<svg width="21" height="17" viewBox="0 0 21 17" fill="none" xmlns="http://www.w3.org/2000/svg">
<path d="M1.5 2.83545L9.68182 9.35838C9.90683 9.50461 10.1981 9.58545 10.5 9.58545C10.8019 9.58545 11.0932 9.50461 11.3182 9.35838L19.5 2.83545M2.52273 1.71045H18.4773C18.7485 1.71045 19.0087 1.82157 19.2005 2.01936C19.3922 2.21715 19.5 2.48542 19.5 2.76514V13.1011C19.5 13.3781 19.4471 13.6524 19.3443 13.9083C19.2415 14.1642 19.0908 14.3968 18.9009 14.5926C18.711 14.7885 18.4855 14.9439 18.2373 15.0499C17.9891 15.1559 17.7232 15.2104 17.4545 15.2104H3.54545C3.27684 15.2104 3.01086 15.1559 2.76269 15.0499C2.51453 14.9439 2.28904 14.7885 2.0991 14.5926C1.90916 14.3968 1.75849 14.1642 1.6557 13.9083C1.55291 13.6524 1.5 13.3781 1.5 13.1011V2.76514C1.5 2.48542 1.60775 2.21715 1.79955 2.01936C1.99135 1.82157 2.25148 1.71045 2.52273 1.71045Z" stroke="#3A3A40" stroke-width="2.1" stroke-linejoin="round"/>
</svg>
