<svg width="20" height="21" viewBox="0 0 20 21" fill="none" xmlns="http://www.w3.org/2000/svg">
<path d="M18.5 13.223L14.0853 11.244L14.0684 11.2365C13.7815 11.1128 13.4681 11.0629 13.1569 11.0916C12.8458 11.1203 12.5467 11.2265 12.2872 11.4005C12.2508 11.4249 12.2158 11.4512 12.1822 11.4793L10.0906 13.2605C8.87188 12.5996 7.61282 11.3508 6.95094 10.1471L8.73782 8.02271C8.76654 7.98843 8.79316 7.95242 8.81751 7.9149C8.98699 7.6563 9.08989 7.35979 9.11704 7.05179C9.14419 6.74379 9.09476 6.43386 8.97313 6.14959C8.97024 6.14414 8.96774 6.1385 8.96563 6.13271L6.98751 1.71053C6.82513 1.3407 6.54801 1.03298 6.19716 0.832903C5.8463 0.632823 5.44035 0.551016 5.03938 0.599588C3.67848 0.778363 2.42918 1.44641 1.52482 2.47895C0.620463 3.5115 0.12288 4.83793 0.125007 6.21053C0.125007 13.8615 6.34907 20.0855 14 20.0855C15.3726 20.0877 16.699 19.5901 17.7316 18.6857C18.7641 17.7813 19.4322 16.5321 19.6109 15.1712C19.6595 14.7702 19.5777 14.3642 19.3776 14.0134C19.1775 13.6625 18.8698 13.3854 18.5 13.223ZM14 17.8355C10.918 17.8318 7.9633 16.6058 5.784 14.4265C3.6047 12.2472 2.37873 9.29253 2.37501 6.21053C2.37286 5.4338 2.63655 4.67973 3.12227 4.0736C3.60799 3.46748 4.28648 3.04581 5.04501 2.87865L6.80938 6.81615L5.01313 8.95553C4.9841 8.99012 4.95717 9.02644 4.93251 9.06428C4.75546 9.33479 4.65137 9.6465 4.63034 9.96912C4.60932 10.2917 4.67207 10.6143 4.81251 10.9055C5.69563 12.713 7.51532 14.5205 9.34157 15.4055C9.63472 15.5445 9.95893 15.605 10.2825 15.5812C10.606 15.5574 10.9179 15.45 11.1875 15.2696C11.2238 15.2451 11.2585 15.2185 11.2916 15.1899L13.3944 13.4021L17.3319 15.1655C17.1647 15.9241 16.743 16.6025 16.1369 17.0883C15.5308 17.574 14.7767 17.8377 14 17.8355Z" fill="#3A3A40"/>
</svg>
