<svg width="26" height="31" fill="none" xmlns="http://www.w3.org/2000/svg"><path fill-rule="evenodd" clip-rule="evenodd" d="M23.808 3.874 26 5.242v10.32c0 3.82-1.702 7.108-4.835 9.338L13 30.71 4.835 24.9C1.702 22.67 0 19.382 0 15.562V5.242l2.192-1.368c6.764-4.218 14.852-4.218 21.616 0Zm-8.14 7.115-3.947 3.908-1.328-1.655a.849.849 0 0 0-1.185-.134.83.83 0 0 0-.135 1.173l1.884 2.348a.85.85 0 0 0 1.29.113l4.616-4.57a.83.83 0 0 0 0-1.183.85.85 0 0 0-1.195 0ZM2.995 6.877v8.685c0 2.868 1.235 5.256 3.588 6.93L13 27.06l6.417-4.567c2.353-1.675 3.588-4.063 3.588-6.931V6.877l-.792-.494C19.32 4.58 16.16 3.677 13 3.677c-3.16 0-6.32.902-9.213 2.706l-.792.494Zm-1.044 8.685c0 3.194 1.404 5.903 4.024 7.767l6.721 4.784c.19.135.44.125.617-.007l6.712-4.777c2.62-1.864 4.024-4.573 4.024-7.767V6.593a.516.516 0 0 0-.279-.458l-1.002-.625C19.702 3.598 16.35 2.642 13 2.642c-3.351 0-6.702.956-9.768 2.868l-1.036.647a.517.517 0 0 0-.244.436l-.001 8.969ZM13 7.052c-3.8 0-6.882 3.05-6.882 6.814 0 3.763 3.081 6.814 6.882 6.814 3.8 0 6.882-3.05 6.882-6.814 0-3.764-3.081-6.815-6.882-6.815Z" fill="#0169D6"/></svg>